name C:\Users\u0101727\Documents\MyRepositories\upper-imu-dc\OpenSim\subject0\MA\ResultsMA\grid_4nodes_9dim\angles_2.mot
datacolumns 10
datarows 18
range 225.01000000 225.18000000
endheader 
time	clav_prot	clav_elev	scapula_abduction	scapula_elevation	scapula_upward_rot	scapula_winging	plane_elv	shoulder_elv	axial_rot	
        225.01000000	        -50.00000000	          0.00000000	         -3.33333333	         10.00000000	         90.00000000	        -10.00000000	        -30.00000000	         26.66666667	        -90.00000000	
        225.02000000	        -38.33333333	          0.00000000	         -3.33333333	         10.00000000	         90.00000000	        -10.00000000	        -30.00000000	         26.66666667	        -90.00000000	
        225.03000000	        -26.66666667	          0.00000000	         -3.33333333	         10.00000000	         90.00000000	        -10.00000000	        -30.00000000	         26.66666667	        -90.00000000	
        225.04000000	        -15.00000000	          0.00000000	         -3.33333333	         10.00000000	         90.00000000	        -10.00000000	        -30.00000000	         26.66666667	        -90.00000000	
        225.05000000	        -50.00000000	         10.00000000	         -3.33333333	         10.00000000	         90.00000000	        -10.00000000	        -30.00000000	         26.66666667	        -90.00000000	
        225.06000000	        -38.33333333	         10.00000000	         -3.33333333	         10.00000000	         90.00000000	        -10.00000000	        -30.00000000	         26.66666667	        -90.00000000	
        225.07000000	        -26.66666667	         10.00000000	         -3.33333333	         10.00000000	         90.00000000	        -10.00000000	        -30.00000000	         26.66666667	        -90.00000000	
        225.08000000	        -15.00000000	         10.00000000	         -3.33333333	         10.00000000	         90.00000000	        -10.00000000	        -30.00000000	         26.66666667	        -90.00000000	
        225.09000000	        -50.00000000	         20.00000000	         -3.33333333	         10.00000000	         90.00000000	        -10.00000000	        -30.00000000	         26.66666667	        -90.00000000	
        225.10000000	        -38.33333333	         20.00000000	         -3.33333333	         10.00000000	         90.00000000	        -10.00000000	        -30.00000000	         26.66666667	        -90.00000000	
        225.11000000	        -26.66666667	         20.00000000	         -3.33333333	         10.00000000	         90.00000000	        -10.00000000	        -30.00000000	         26.66666667	        -90.00000000	
        225.12000000	        -15.00000000	         20.00000000	         -3.33333333	         10.00000000	         90.00000000	        -10.00000000	        -30.00000000	         26.66666667	        -90.00000000	
        225.13000000	        -50.00000000	        -10.00000000	         15.00000000	         10.00000000	         90.00000000	        -10.00000000	        -30.00000000	         26.66666667	        -90.00000000	
        225.14000000	        -38.33333333	        -10.00000000	         15.00000000	         10.00000000	         90.00000000	        -10.00000000	        -30.00000000	         26.66666667	        -90.00000000	
        225.15000000	        -26.66666667	        -10.00000000	         15.00000000	         10.00000000	         90.00000000	        -10.00000000	        -30.00000000	         26.66666667	        -90.00000000	
        225.16000000	        -15.00000000	        -10.00000000	         15.00000000	         10.00000000	         90.00000000	        -10.00000000	        -30.00000000	         26.66666667	        -90.00000000	
        225.17000000	        -50.00000000	          0.00000000	         15.00000000	         10.00000000	         90.00000000	        -10.00000000	        -30.00000000	         26.66666667	        -90.00000000	
        225.18000000	        -38.33333333	          0.00000000	         15.00000000	         10.00000000	         90.00000000	        -10.00000000	        -30.00000000	         26.66666667	        -90.00000000	
